<svg width="520" height="323" viewBox="0 0 520 323" fill="none" xmlns="http://www.w3.org/2000/svg">
<path d="M72.9591 150.43L96.0571 201.181L107.508 180.571L72.9591 150.43Z" fill="#FFD231"/>
<path d="M148.791 193.206L107.477 180.491L95.9576 201.069L148.791 193.206Z" fill="#F3E35E"/>
<path d="M111.741 230.697L133.156 234.446L148.813 193.351L111.741 230.697Z" fill="#FFD231"/>
<path d="M133.154 234.446L135.769 281.139L111.74 230.697L133.154 234.446Z" fill="#F3E35E"/>
<path d="M135.838 281.171C135.838 281.171 90.2549 275.571 89.9256 275.641C89.8633 275.65 86.4958 252.516 86.8447 252.719C88.6635 253.806 135.637 280.967 135.838 281.171Z" fill="#FFD231"/>
<path d="M86.8456 252.719L48.3536 293.781L89.9919 275.653L86.8456 252.719Z" fill="#F3E35E"/>
<path d="M48.3551 293.78L38.8479 247.861L57.2063 239.812L48.3551 293.78Z" fill="#FFD231"/>
<path d="M7.8075 212.778L38.8461 247.86L57.1868 239.835L7.8075 212.778Z" fill="#F3E35E"/>
<path d="M7.80832 212.779L47.7379 189.321L48.5785 188.834L62.3421 205.639L7.80832 212.779Z" fill="#FFD231"/>
<path d="M72.958 150.431L48.5746 188.835L62.3381 205.64L72.958 150.431Z" fill="#F3E35E"/>
<path d="M111.739 230.696L128.573 196.35L148.81 193.351L111.739 230.696Z" fill="#FFD231"/>
<path d="M96.0909 201.261L68.5075 173.394L72.9597 150.43L96.0909 201.261Z" fill="#FFD231"/>
<path d="M62.3408 205.639L30.3565 225.13L7.69788 212.902L62.3408 205.639Z" fill="#FFD231"/>
<path d="M57.1662 239.839L65.1707 275.831L48.3535 293.78L57.1662 239.839Z" fill="#FFD231"/>
<path d="M86.8462 252.718L135.798 281.177L124.633 257.74L86.8462 252.718Z" fill="#FFD231"/>
<path d="M333.272 21.835L378.502 121.272L400.971 80.8596L333.272 21.835Z" fill="#FFD231"/>
<path d="M481.845 105.638L400.887 80.7236L378.319 121.044L481.845 105.638Z" fill="#F3E35E"/>
<path d="M409.258 179.078L451.195 186.433L481.883 105.887L409.258 179.078Z" fill="#FFD231"/>
<path d="M451.195 186.432L456.328 277.9L409.258 179.077L451.195 186.432Z" fill="#F3E35E"/>
<path d="M456.468 277.964C456.468 277.964 367.184 266.993 366.522 267.113C366.398 267.131 359.806 221.818 360.503 222.223C364.069 224.346 456.112 277.572 456.489 277.961L456.468 277.964Z" fill="#FFD231"/>
<path d="M360.477 222.205L285.045 302.632L366.627 267.118L360.477 222.205Z" fill="#F3E35E"/>
<path d="M285.048 302.631L266.447 212.706L302.405 196.934L285.048 302.631Z" fill="#FFD231"/>
<path d="M205.622 143.971L266.445 212.707L302.371 197.004L205.622 143.971Z" fill="#F3E35E"/>
<path d="M205.622 143.971L283.88 97.9938L285.502 97.0509L312.461 129.981L205.622 143.971Z" fill="#FFD231"/>
<path d="M333.273 21.8349L285.501 97.0508L312.459 129.981L333.273 21.8349Z" fill="#F3E35E"/>
<path d="M409.258 179.077L442.243 111.781L481.884 105.887L409.258 179.077Z" fill="#FFD231"/>
<path d="M378.607 121.405L324.564 66.7986L333.272 21.8352L378.607 121.405Z" fill="#FFD231"/>
<path d="M312.46 129.981L249.797 168.173L205.622 143.971L312.46 129.981Z" fill="#FFD231"/>
<path d="M302.344 196.965L318.008 267.493L285.046 302.632L302.344 196.965Z" fill="#FFD231"/>
<path d="M360.479 222.205L456.384 277.976L434.516 232.054L360.479 222.205Z" fill="#FFD231"/>
<path d="M406.2 69.78L382.84 31.3647L446.453 43.9373L406.2 69.78Z" fill="#F3E35E"/>
<path d="M462.501 195.873L469.169 225.757L494.41 217.573" fill="#F3E35E"/>
<path d="M468.017 188.446L486.041 161.503L495.096 177.779L468.017 188.446Z" fill="#F3E35E"/>
<path d="M430.248 68.3992L486.569 46.7636L487.304 66.4895L430.248 68.3992Z" fill="#F3E35E"/>
<path d="M184.8 195.266L202.501 166.162L212.825 191.083L184.8 195.266Z" fill="#F3E35E"/>
<path d="M336.976 295.393L372.235 289.452L385.219 316.121L336.976 295.393Z" fill="#F3E35E"/>
<path d="M93.1612 146.002L375.861 100L377.972 167.495L95.2203 211.829L93.1612 146.002Z" fill="#E7462C"/>
<path d="M52.9383 228.91L478.544 158.772L483.746 226.1L58.0121 294.573L52.9383 228.91Z" fill="#E7462C"/>
<path d="M120.121 189.022C117.55 189.376 115.204 189.36 113.086 188.973C110.967 188.587 109.066 187.877 107.382 186.845L108.331 183.662C109.499 184.303 110.649 184.823 111.783 185.222C112.943 185.586 114.162 185.819 115.44 185.921C116.714 185.992 118.122 185.921 119.665 185.709C122.358 185.338 124.286 184.564 125.45 183.387C126.613 182.209 127.08 180.788 126.851 179.124C126.656 177.702 126.052 176.676 125.04 176.044C124.028 175.413 122.356 175.026 120.025 174.885L115.128 174.588C112.11 174.387 109.781 173.705 108.142 172.544C106.532 171.378 105.567 169.63 105.246 167.301C104.984 165.395 105.239 163.664 106.011 162.109C106.814 160.549 108.054 159.253 109.73 158.221C111.407 157.188 113.426 156.51 115.785 156.185C118.055 155.872 120.175 155.935 122.147 156.373C124.114 156.78 125.853 157.543 127.364 158.66L126.447 161.746C124.85 160.671 123.228 159.97 121.579 159.642C119.957 159.279 118.163 159.233 116.196 159.504C113.715 159.846 111.824 160.661 110.521 161.95C109.245 163.205 108.734 164.755 108.988 166.601C109.192 168.083 109.806 169.185 110.831 169.908C111.851 170.6 113.434 171.014 115.58 171.15L120.522 171.441C123.695 171.651 126.096 172.292 127.723 173.363C129.35 174.433 130.322 176.118 130.639 178.418C130.88 180.173 130.611 181.797 129.83 183.292C129.079 184.783 127.879 186.027 126.228 187.025C124.577 188.023 122.542 188.689 120.121 189.022ZM138.204 186.116L135.067 163.334L138.743 162.828L141.88 185.61L138.204 186.116ZM133.901 158.223L133.332 154.093L137.871 153.468L138.439 157.598L133.901 158.223ZM161.15 193.27C159.183 193.54 157.335 193.548 155.604 193.293C153.873 193.038 152.273 192.503 150.805 191.688L151.513 188.77C152.542 189.306 153.538 189.709 154.5 189.977C155.462 190.245 156.439 190.404 157.432 190.452C158.43 190.53 159.473 190.495 160.562 190.345C162.801 190.036 164.414 189.213 165.401 187.875C166.389 186.537 166.732 184.778 166.432 182.6L165.514 175.929L165.968 175.866C165.729 177.718 164.927 179.277 163.56 180.545C162.189 181.781 160.49 182.54 158.462 182.819C156.375 183.106 154.497 182.902 152.829 182.207C151.187 181.477 149.826 180.324 148.745 178.746C147.691 177.134 147.004 175.163 146.683 172.833C146.366 170.534 146.5 168.481 147.083 166.674C147.697 164.863 148.698 163.399 150.086 162.284C151.5 161.133 153.251 160.414 155.338 160.127C157.396 159.844 159.236 160.114 160.861 160.939C162.515 161.759 163.709 163.044 164.443 164.793L163.927 164.401L163.654 159.398L167.24 158.905C167.239 159.799 167.272 160.704 167.336 161.62C167.396 162.505 167.485 163.372 167.601 164.219L169.994 181.601C170.461 184.99 169.936 187.667 168.418 189.633C166.931 191.595 164.508 192.807 161.15 193.27ZM158.731 179.73C160.939 179.425 162.579 178.46 163.65 176.833C164.717 175.175 165.067 173.015 164.7 170.353C164.334 167.69 163.415 165.72 161.944 164.443C160.474 163.166 158.634 162.679 156.425 162.983C154.247 163.283 152.607 164.249 151.506 165.88C150.405 167.511 150.038 169.658 150.404 172.321C150.771 174.983 151.707 176.966 153.212 178.27C154.713 179.543 156.552 180.029 158.731 179.73ZM187.186 179.789C185.008 180.089 183.037 179.882 181.274 179.169C179.538 178.422 178.11 177.231 176.991 175.597C175.867 173.933 175.139 171.89 174.806 169.47C174.469 167.019 174.618 164.856 175.254 162.981C175.889 161.105 176.945 159.588 178.419 158.429C179.919 157.236 181.759 156.489 183.937 156.19C186.146 155.885 188.119 156.107 189.856 156.855C191.619 157.568 193.06 158.741 194.179 160.375C195.328 162.005 196.071 164.045 196.409 166.496C196.742 168.916 196.577 171.082 195.916 172.992C195.28 174.867 194.212 176.402 192.711 177.595C191.237 178.753 189.395 179.485 187.186 179.789ZM186.774 176.794C188.952 176.494 190.575 175.515 191.642 173.858C192.704 172.17 193.037 169.889 192.642 167.014C192.242 164.11 191.289 162.006 189.784 160.703C188.305 159.365 186.492 158.844 184.343 159.139C182.195 159.435 180.59 160.427 179.528 162.115C178.461 163.772 178.128 166.053 178.527 168.958C178.923 171.832 179.861 173.938 181.34 175.276C182.814 176.583 184.626 177.089 186.774 176.794ZM204.327 177.013L201.946 159.722C201.821 158.814 201.664 157.896 201.474 156.966C201.315 156.032 201.129 155.133 200.918 154.268L204.458 153.781L205.674 159.255L205.045 159.388C205.16 157.985 205.535 156.792 206.171 155.811C206.806 154.829 207.609 154.056 208.58 153.491C209.546 152.895 210.589 152.52 211.708 152.366C212.162 152.304 212.557 152.265 212.894 152.249C213.262 152.229 213.605 152.259 213.924 152.339L214.328 155.612C213.854 155.524 213.418 155.491 213.02 155.515C212.649 155.505 212.221 155.533 211.737 155.599C210.406 155.783 209.285 156.261 208.374 157.033C207.493 157.802 206.864 158.721 206.487 159.79C206.141 160.855 206.044 161.948 206.199 163.067L208.048 176.501L204.327 177.013ZM230.945 173.765C228.706 174.073 226.909 173.673 225.554 172.564C224.195 171.426 223.336 169.556 222.978 166.954L221.247 154.382L216.8 154.995L216.406 152.136L220.853 151.523L219.997 145.306L223.53 143.756L224.53 151.017L231.065 150.117L231.458 152.977L224.923 153.876L226.598 166.039C226.848 167.854 227.329 169.114 228.043 169.817C228.782 170.486 229.772 170.735 231.013 170.564C231.587 170.485 232.096 170.369 232.537 170.216C232.974 170.032 233.364 169.84 233.706 169.639L234.131 172.725C233.732 172.965 233.237 173.171 232.644 173.346C232.086 173.546 231.519 173.685 230.945 173.765ZM248.11 171.401C246.083 171.68 244.248 171.455 242.607 170.725C240.96 169.965 239.593 168.766 238.504 167.128C237.446 165.486 236.748 163.439 236.41 160.989C236.069 158.508 236.186 156.334 236.761 154.466C237.367 152.595 238.361 151.086 239.745 149.94C241.129 148.794 242.834 148.081 244.861 147.802C246.918 147.519 248.761 147.804 250.39 148.659C252.044 149.48 253.236 150.749 253.966 152.468L253.421 152.543L253.177 147.073L256.717 146.586C256.747 147.476 256.779 148.381 256.813 149.301C256.874 150.187 256.962 151.053 257.079 151.9L259.491 169.418L255.814 169.924L255.077 164.569L255.576 164.5C255.338 166.352 254.533 167.896 253.162 169.133C251.791 170.37 250.107 171.126 248.11 171.401ZM248.424 168.306C250.602 168.006 252.225 167.027 253.291 165.37C254.354 163.682 254.687 161.401 254.292 158.527C253.892 155.622 252.954 153.516 251.479 152.209C250 150.871 248.172 150.352 245.993 150.652C243.845 150.948 242.225 151.941 241.132 153.633C240.065 155.291 239.732 157.572 240.132 160.476C240.528 163.351 241.465 165.457 242.944 166.794C244.449 168.098 246.276 168.602 248.424 168.306ZM278.21 167.257C275.638 167.611 273.293 167.595 271.174 167.209C269.055 166.822 267.154 166.113 265.471 165.08L266.42 161.898C267.587 162.539 268.738 163.058 269.872 163.457C271.032 163.822 272.251 164.055 273.529 164.156C274.802 164.227 276.211 164.157 277.754 163.944C280.447 163.574 282.375 162.799 283.538 161.622C284.702 160.444 285.169 159.024 284.94 157.359C284.744 155.937 284.14 154.911 283.129 154.279C282.117 153.648 280.445 153.261 278.113 153.12L273.217 152.823C270.199 152.622 267.87 151.941 266.23 150.779C264.621 149.613 263.656 147.866 263.335 145.536C263.072 143.63 263.327 141.899 264.1 140.344C264.903 138.784 266.142 137.488 267.819 136.456C269.496 135.424 271.514 134.745 273.874 134.42C276.143 134.108 278.264 134.17 280.235 134.608C282.203 135.015 283.942 135.778 285.452 136.895L284.536 139.981C282.939 138.906 281.316 138.205 279.668 137.877C278.046 137.514 276.251 137.469 274.285 137.739C271.804 138.081 269.912 138.896 268.61 140.185C267.334 141.44 266.823 142.99 267.077 144.836C267.281 146.318 267.895 147.421 268.919 148.143C269.939 148.835 271.523 149.249 273.668 149.385L278.61 149.676C281.784 149.886 284.184 150.527 285.811 151.598C287.439 152.669 288.411 154.354 288.727 156.653C288.969 158.408 288.699 160.033 287.918 161.528C287.168 163.018 285.967 164.262 284.317 165.26C282.666 166.258 280.63 166.924 278.21 167.257ZM304.338 163.66C302.099 163.968 300.302 163.568 298.947 162.46C297.588 161.321 296.73 159.451 296.371 156.849L294.641 144.278L290.193 144.89L289.799 142.031L294.247 141.419L293.391 135.201L296.923 133.651L297.923 140.913L304.458 140.013L304.852 142.872L298.317 143.772L299.991 155.935C300.241 157.75 300.723 159.009 301.436 159.713C302.176 160.382 303.166 160.631 304.406 160.46C304.981 160.381 305.489 160.265 305.93 160.111C306.368 159.928 306.757 159.735 307.1 159.534L307.524 162.62C307.126 162.86 306.63 163.067 306.038 163.241C305.479 163.441 304.913 163.581 304.338 163.66ZM321.504 161.297C319.477 161.576 317.642 161.351 316 160.621C314.354 159.861 312.987 158.662 311.898 157.024C310.839 155.381 310.141 153.335 309.804 150.884C309.462 148.403 309.579 146.229 310.155 144.362C310.76 142.49 311.755 140.982 313.138 139.835C314.522 138.689 316.227 137.977 318.255 137.697C320.312 137.414 322.155 137.7 323.783 138.555C325.438 139.375 326.63 140.645 327.36 142.363L326.815 142.438L326.571 136.969L330.111 136.481C330.141 137.371 330.173 138.276 330.207 139.196C330.267 140.082 330.356 140.949 330.472 141.796L332.884 159.314L329.208 159.82L328.471 154.465L328.97 154.396C328.732 156.248 327.927 157.792 326.556 159.029C325.185 160.266 323.501 161.022 321.504 161.297ZM321.817 158.202C323.996 157.902 325.618 156.923 326.685 155.265C327.747 153.578 328.081 151.297 327.685 148.422C327.285 145.518 326.348 143.412 324.873 142.104C323.394 140.766 321.565 140.247 319.387 140.547C317.239 140.843 315.618 141.837 314.526 143.529C313.459 145.186 313.126 147.467 313.525 150.372C313.921 153.246 314.859 155.352 316.338 156.69C317.843 157.993 319.669 158.497 321.817 158.202ZM340.61 158.25L338.229 140.959C338.104 140.051 337.947 139.133 337.757 138.203C337.598 137.269 337.413 136.37 337.201 135.505L340.741 135.018L341.957 140.492L341.328 140.625C341.443 139.222 341.818 138.029 342.454 137.048C343.09 136.066 343.893 135.293 344.863 134.728C345.829 134.132 346.872 133.758 347.991 133.603C348.445 133.541 348.841 133.502 349.178 133.486C349.545 133.467 349.888 133.496 350.207 133.576L350.612 136.85C350.137 136.761 349.701 136.728 349.304 136.752C348.932 136.742 348.504 136.77 348.02 136.837C346.689 137.02 345.568 137.498 344.657 138.271C343.776 139.039 343.148 139.958 342.771 141.028C342.424 142.093 342.328 143.185 342.482 144.304L344.331 157.738L340.61 158.25ZM357.897 155.87L354.76 133.088L358.436 132.582L361.573 155.364L357.897 155.87Z" fill="white"/>
<path d="M76.4988 270.504L72.2713 243.4L78.2688 242.465L79.9658 253.345L92.3837 251.408L90.6867 240.528L96.7227 239.586L100.95 266.69L94.9142 267.632L93.1572 256.367L80.7393 258.304L82.4963 269.569L76.4988 270.504ZM116.545 264.691C113.162 265.219 110.38 264.721 108.2 263.197C106.019 261.673 104.685 259.348 104.197 256.221C103.881 254.196 104.003 252.365 104.562 250.729C105.146 249.089 106.09 247.734 107.393 246.665C108.718 245.565 110.355 244.864 112.303 244.56C114.225 244.26 115.891 244.42 117.3 245.041C118.735 245.657 119.889 246.658 120.762 248.045C121.656 249.402 122.255 251.054 122.559 253.002L122.769 254.348L109.12 256.477L108.671 253.593L118.09 252.124L117.52 252.764C117.268 251.15 116.745 249.984 115.951 249.268C115.178 248.522 114.177 248.245 112.947 248.437C111.588 248.649 110.615 249.313 110.028 250.428C109.466 251.54 109.331 253.031 109.623 254.902L109.719 255.517C110.015 257.414 110.696 258.751 111.763 259.53C112.855 260.305 114.285 260.554 116.054 260.279C117.105 260.115 118.071 259.833 118.954 259.432C119.858 259.002 120.688 258.427 121.441 257.705L123.656 261.298C122.794 262.168 121.752 262.895 120.53 263.479C119.334 264.059 118.006 264.463 116.545 264.691ZM128.375 262.413L126.139 248.073C126.007 247.227 125.847 246.372 125.66 245.509C125.498 244.641 125.3 243.793 125.066 242.963L130.641 242.094L132.182 247.682L131.297 247.819C131.338 246.395 131.57 245.191 131.994 244.206C132.444 243.217 133.057 242.439 133.835 241.871C134.639 241.299 135.591 240.928 136.693 240.756C137.18 240.68 137.569 240.645 137.859 240.653C138.145 240.634 138.437 240.654 138.735 240.713L139.494 245.832C138.919 245.685 138.436 245.616 138.044 245.625C137.673 245.604 137.206 245.638 136.642 245.726C135.565 245.894 134.7 246.239 134.046 246.761C133.418 247.279 132.987 247.963 132.752 248.813C132.543 249.66 132.526 250.647 132.702 251.775L134.219 261.501L128.375 262.413ZM155.657 258.158L154.967 253.737L166.376 231.952L166.652 233.72L152.197 235.975L151.429 231.054L171.613 227.906L172.297 232.288L160.849 254.079L160.579 252.349L175.611 250.005L176.379 254.926L155.657 258.158ZM187.79 253.579C186.098 253.843 184.548 253.665 183.138 253.045C181.729 252.424 180.547 251.414 179.594 250.014C178.64 248.613 177.998 246.85 177.666 244.722C177.338 242.621 177.415 240.758 177.897 239.134C178.379 237.509 179.198 236.2 180.356 235.206C181.509 234.186 182.932 233.544 184.624 233.28C186.187 233.036 187.644 233.203 188.994 233.78C190.366 234.327 191.344 235.212 191.928 236.433L191.505 236.499L191.373 232.621L196.948 231.752C197.003 232.609 197.06 233.48 197.119 234.363C197.199 235.217 197.304 236.054 197.432 236.874L199.68 251.291L193.913 252.191L193.305 248.545L193.767 248.473C193.549 249.767 192.882 250.881 191.768 251.817C190.654 252.752 189.328 253.339 187.79 253.579ZM188.875 248.921C190.207 248.713 191.21 248.071 191.882 246.994C192.554 245.918 192.737 244.393 192.429 242.42C192.121 240.446 191.485 239.062 190.521 238.267C189.557 237.472 188.408 237.179 187.076 237.387C185.743 237.595 184.738 238.224 184.062 239.275C183.386 240.325 183.202 241.837 183.509 243.811C183.817 245.784 184.442 247.183 185.385 248.008C186.353 248.828 187.516 249.132 188.875 248.921ZM205.042 250.455L202.793 236.038C202.665 235.218 202.51 234.389 202.327 233.551C202.139 232.688 201.929 231.841 201.694 231.011L207.269 230.142L208.255 233.69L207.794 233.762C208.166 232.443 208.847 231.34 209.837 230.45C210.827 229.56 212.079 228.998 213.591 228.762C215.077 228.53 216.376 228.695 217.488 229.257C218.621 229.789 219.521 230.764 220.189 232.183L219.574 232.279C219.93 230.858 220.663 229.667 221.773 228.706C222.88 227.72 224.215 227.105 225.778 226.861C227.982 226.517 229.725 226.915 231.005 228.054C232.285 229.193 233.143 231.16 233.579 233.954L235.414 245.718L229.609 246.623L227.804 235.051C227.592 233.693 227.222 232.753 226.694 232.231C226.167 231.71 225.416 231.525 224.442 231.677C223.289 231.857 222.443 232.409 221.904 233.333C221.366 234.257 221.209 235.437 221.432 236.872L223.111 247.637L217.306 248.542L215.501 236.97C215.289 235.612 214.92 234.672 214.392 234.15C213.864 233.629 213.113 233.444 212.139 233.596C210.986 233.776 210.14 234.328 209.602 235.252C209.089 236.172 208.944 237.35 209.168 238.785L210.847 249.55L205.042 250.455ZM248.311 244.14C246.62 244.403 245.069 244.225 243.66 243.605C242.25 242.985 241.069 241.974 240.115 240.574C239.162 239.174 238.519 237.41 238.187 235.283C237.86 233.181 237.937 231.318 238.418 229.694C238.9 228.07 239.72 226.761 240.877 225.766C242.031 224.746 243.454 224.104 245.145 223.84C246.709 223.596 248.166 223.763 249.516 224.34C250.888 224.887 251.866 225.772 252.45 226.994L252.027 227.059L251.895 223.181L257.469 222.312C257.524 223.17 257.581 224.04 257.64 224.924C257.721 225.778 257.825 226.615 257.953 227.435L260.202 241.852L254.435 242.751L253.827 239.105L254.288 239.033C254.07 240.327 253.404 241.442 252.29 242.377C251.175 243.312 249.849 243.9 248.311 244.14ZM249.396 239.481C250.729 239.273 251.732 238.631 252.404 237.555C253.076 236.479 253.258 234.954 252.951 232.98C252.643 231.007 252.007 229.622 251.043 228.828C250.079 228.033 248.93 227.739 247.597 227.947C246.265 228.155 245.26 228.784 244.584 229.835C243.908 230.886 243.723 232.398 244.031 234.371C244.339 236.345 244.964 237.744 245.907 238.568C246.875 239.389 248.038 239.693 249.396 239.481ZM265.564 241.016L263.315 226.598C263.187 225.778 263.032 224.949 262.848 224.111C262.661 223.248 262.45 222.401 262.216 221.572L267.791 220.702L268.777 224.25L268.316 224.322C268.757 222.941 269.513 221.812 270.584 220.936C271.655 220.06 272.972 219.5 274.535 219.256C276.816 218.901 278.625 219.301 279.96 220.458C281.318 221.585 282.212 223.533 282.644 226.301L284.479 238.065L278.674 238.971L276.881 227.476C276.661 226.066 276.249 225.106 275.644 224.597C275.039 224.087 274.225 223.912 273.199 224.072C271.918 224.272 270.957 224.842 270.316 225.782C269.671 226.697 269.454 227.833 269.666 229.192L271.369 240.11L265.564 241.016ZM308.152 234.373L306.143 221.494L307.907 224.723L293.275 208.93L300.195 207.851L309.465 218.298L308.234 218.49L313.882 205.716L320.571 204.672L311.483 224.166L312.141 220.558L314.149 233.438L308.152 234.373ZM331.059 231.233C329.368 231.497 327.817 231.319 326.408 230.699C324.998 230.078 323.817 229.068 322.863 227.668C321.91 226.268 321.267 224.504 320.935 222.376C320.608 220.275 320.685 218.412 321.166 216.788C321.648 215.164 322.468 213.854 323.625 212.86C324.779 211.84 326.202 211.198 327.893 210.934C329.457 210.69 330.914 210.857 332.264 211.434C333.636 211.981 334.614 212.866 335.198 214.087L334.775 214.153L334.643 210.275L340.217 209.406C340.272 210.263 340.329 211.134 340.388 212.017C340.469 212.871 340.573 213.708 340.701 214.528L342.95 228.945L337.183 229.845L336.575 226.199L337.036 226.127C336.818 227.421 336.152 228.536 335.038 229.471C333.923 230.406 332.597 230.993 331.059 231.233ZM332.144 226.575C333.477 226.367 334.48 225.725 335.152 224.648C335.824 223.572 336.006 222.047 335.698 220.074C335.391 218.1 334.755 216.716 333.791 215.921C332.827 215.127 331.678 214.833 330.345 215.041C329.013 215.249 328.008 215.878 327.332 216.929C326.656 217.979 326.471 219.491 326.779 221.465C327.087 223.438 327.712 224.837 328.655 225.662C329.623 226.482 330.786 226.787 332.144 226.575ZM348.312 228.109L346.063 213.692C345.935 212.872 345.779 212.043 345.596 211.205C345.409 210.342 345.198 209.495 344.964 208.665L350.538 207.796L351.525 211.344L351.064 211.416C351.505 210.034 352.261 208.906 353.332 208.03C354.403 207.154 355.72 206.594 357.283 206.35C359.564 205.994 361.373 206.395 362.708 207.552C364.066 208.679 364.96 210.627 365.392 213.395L367.227 225.159L361.422 226.064L359.629 214.569C359.409 213.16 358.997 212.2 358.392 211.69C357.787 211.181 356.973 211.006 355.947 211.166C354.666 211.366 353.705 211.936 353.064 212.876C352.419 213.79 352.202 214.927 352.414 216.285L354.117 227.204L348.312 228.109ZM372.49 224.338L369.45 204.846L375.255 203.941L378.295 223.433L372.49 224.338ZM383.641 222.599L381.392 208.182C381.264 207.362 381.109 206.533 380.926 205.695C380.738 204.831 380.528 203.985 380.293 203.155L385.868 202.285L386.854 205.833L386.393 205.905C386.834 204.524 387.59 203.395 388.661 202.519C389.732 201.643 391.049 201.084 392.613 200.84C394.894 200.484 396.702 200.884 398.038 202.041C399.395 203.169 400.289 205.116 400.721 207.884L402.556 219.649L396.751 220.554L394.958 209.059C394.738 207.649 394.326 206.69 393.721 206.18C393.117 205.671 392.302 205.496 391.277 205.656C389.995 205.855 389.034 206.425 388.393 207.366C387.748 208.28 387.531 209.416 387.743 210.775L389.446 221.693L383.641 222.599ZM415.536 218.057C413.845 218.321 412.281 218.145 410.846 217.529C409.437 216.908 408.242 215.9 407.263 214.504C406.31 213.104 405.667 211.34 405.335 209.212C405.008 207.111 405.085 205.248 405.566 203.624C406.048 202 406.881 200.688 408.064 199.69C409.243 198.666 410.678 198.022 412.37 197.758C413.908 197.518 415.337 197.676 416.658 198.231C418 198.757 418.972 199.603 419.574 200.769L419.074 200.847L417.131 188.391L422.937 187.486L427.35 215.782L421.621 216.675L421.028 212.869L421.528 212.791C421.317 214.136 420.657 215.29 419.547 216.25C418.437 217.211 417.1 217.813 415.536 218.057ZM416.583 213.405C417.915 213.197 418.918 212.555 419.59 211.479C420.262 210.402 420.445 208.877 420.137 206.904C419.829 204.93 419.193 203.546 418.229 202.751C417.265 201.957 416.116 201.663 414.784 201.871C413.451 202.079 412.434 202.71 411.732 203.765C411.055 204.815 410.871 206.327 411.179 208.301C411.487 210.275 412.125 211.672 413.093 212.492C414.087 213.308 415.25 213.613 416.583 213.405ZM440.351 214.187C438.66 214.451 437.109 214.273 435.7 213.652C434.29 213.032 433.109 212.022 432.155 210.621C431.202 209.221 430.559 207.457 430.227 205.33C429.9 203.228 429.976 201.365 430.458 199.741C430.94 198.117 431.76 196.808 432.917 195.813C434.071 194.793 435.494 194.151 437.185 193.888C438.749 193.644 440.205 193.81 441.556 194.387C442.927 194.935 443.906 195.819 444.49 197.041L444.067 197.107L443.935 193.229L449.509 192.359C449.564 193.217 449.621 194.088 449.68 194.971C449.761 195.825 449.865 196.662 449.993 197.482L452.242 211.899L446.475 212.799L445.867 209.152L446.328 209.08C446.11 210.375 445.444 211.489 444.329 212.424C443.215 213.36 441.889 213.947 440.351 214.187ZM441.436 209.528C442.769 209.32 443.771 208.678 444.444 207.602C445.116 206.526 445.298 205.001 444.99 203.027C444.683 201.054 444.047 199.67 443.083 198.875C442.118 198.08 440.97 197.787 439.637 197.995C438.304 198.202 437.3 198.832 436.624 199.882C435.947 200.933 435.763 202.445 436.071 204.419C436.379 206.392 437.004 207.791 437.946 208.615C438.915 209.436 440.078 209.74 441.436 209.528ZM457.112 202.358L452.415 184.109L459.566 182.993L460.611 201.812L457.112 202.358ZM457.104 211.141L456.144 204.99L462.372 204.018L463.332 210.169L457.104 211.141Z" fill="white"/>
</svg>
