<svg width="90" height="89" viewBox="0 0 90 89" fill="none" xmlns="http://www.w3.org/2000/svg">
<path d="M44.9816 88.1541C69.3258 88.1541 89.0607 68.4192 89.0607 44.075C89.0607 19.7307 69.3258 -0.00415039 44.9816 -0.00415039C20.6374 -0.00415039 0.902527 19.7307 0.902527 44.075C0.902527 68.4192 20.6374 88.1541 44.9816 88.1541Z" fill="#29A71A"/>
<path d="M64.4152 24.6405C59.8291 20.0087 53.7389 17.1682 47.2429 16.6313C40.7469 16.0944 34.2729 17.8964 28.9887 21.7125C23.7044 25.5285 19.9577 31.1072 18.4244 37.4424C16.8911 43.7776 17.6721 50.4522 20.6266 56.2623L17.7264 70.3425C17.6963 70.4827 17.6955 70.6275 17.7239 70.768C17.7523 70.9085 17.8095 71.0416 17.8917 71.159C18.0122 71.3372 18.1841 71.4744 18.3846 71.5522C18.5851 71.6301 18.8046 71.6449 19.0137 71.5948L32.8135 68.3239C38.6072 71.2036 45.2347 71.9344 51.5166 70.3863C57.7986 68.8382 63.3276 65.1116 67.1198 59.8696C70.912 54.6275 72.7215 48.2101 72.2262 41.7592C71.731 35.3083 68.9631 29.2423 64.4152 24.6405ZM60.1125 58.9822C56.9394 62.1463 52.8534 64.235 48.4303 64.9539C44.0072 65.6728 39.4701 64.9857 35.4582 62.9893L33.5348 62.0376L25.0746 64.0412L25.0996 63.936L26.8528 55.4208L25.9111 53.5624C23.8612 49.5366 23.1381 44.9652 23.8453 40.5032C24.5525 36.0412 26.6538 31.9175 29.8482 28.7228C33.8619 24.7104 39.3049 22.4563 44.9803 22.4563C50.6557 22.4563 56.0987 24.7104 60.1125 28.7228C60.1466 28.762 60.1835 28.7989 60.2227 28.833C64.1866 32.8559 66.3995 38.2827 66.3789 43.9303C66.3582 49.5779 64.1057 54.9884 60.1125 58.9822Z" fill="white"/>
<path d="M59.3626 52.7354C58.3257 54.3683 56.6878 56.3669 54.6291 56.8628C51.0226 57.7343 45.4877 56.8928 38.6003 50.4713L38.5152 50.3962C32.4593 44.7811 30.8865 40.1077 31.2672 36.401C31.4776 34.2973 33.2307 32.3939 34.7084 31.1516C34.942 30.9522 35.219 30.8103 35.5173 30.7371C35.8156 30.6639 36.1268 30.6616 36.4262 30.7302C36.7256 30.7988 37.0047 30.9366 37.2413 31.1324C37.4779 31.3282 37.6655 31.5766 37.7889 31.8579L40.0179 36.8669C40.1627 37.1917 40.2164 37.5498 40.1732 37.9027C40.1299 38.2557 39.9914 38.5903 39.7724 38.8705L38.6454 40.3331C38.4036 40.6351 38.2577 41.0026 38.2264 41.3882C38.1952 41.7738 38.2801 42.16 38.4701 42.497C39.1012 43.604 40.614 45.2319 42.292 46.7396C44.1753 48.4427 46.2641 50.0005 47.5865 50.5314C47.9403 50.676 48.3293 50.7112 48.7034 50.6327C49.0775 50.5541 49.4194 50.3653 49.6852 50.0906L50.9926 48.7732C51.2448 48.5245 51.5585 48.3471 51.9017 48.2591C52.2449 48.1711 52.6053 48.1757 52.9461 48.2723L58.2406 49.775C58.5326 49.8646 58.8003 50.0198 59.0232 50.2287C59.2461 50.4377 59.4183 50.6948 59.5265 50.9804C59.6348 51.2661 59.6763 51.5727 59.6479 51.8769C59.6195 52.1811 59.5219 52.4747 59.3626 52.7354Z" fill="white"/>
</svg>
